Coordinates
version=1
nRows=24
nColumns=22
inDegrees=yes

Units are S.I. units (second, meters, Newtons, ...)
If the header above contains a line with 'inDegrees', this indicates whether rotational values are in degrees (yes) or radians (no).

endheader
time	pelvis_tilt	pelvis_list	pelvis_rotation	pelvis_tx	pelvis_ty	pelvis_tz	hip_flexion_r	hip_adduction_r	hip_rotation_r	knee_angle_r	ankle_angle_r	subtalar_angle_r	hip_flexion_l	hip_adduction_l	hip_rotation_l	knee_angle_l	ankle_angle_l	subtalar_angle_l	lumbar_extension	lumbar_bending	lumbar_rotation
      1.39000000	     -9.75277449	      4.22605126	    -33.71457406	     -0.92617174	      0.87275204	     -0.39992334	     17.43124476	     -2.47225141	     -0.31250974	    -27.01363241	     17.64239542	      3.37512994	      8.01781099	      0.34823893	      1.20311396	    -12.16368991	     20.65160006	     -3.88930334	      3.21832588	      0.38681807	     12.11142749
      1.40000000	     -9.68072361	      4.08233178	    -33.60619387	     -0.92466642	      0.87273901	     -0.40045730	     18.55126356	     -2.50395591	     -0.30151614	    -29.45840509	     17.00931188	      3.84898847	      7.81125804	      0.35837416	      1.33447100	    -12.18042513	     20.81143091	     -3.95513686	      2.92956370	      0.50235039	     11.91317867
      1.41000000	     -9.56753586	      3.91369196	    -33.50401987	     -0.92310879	      0.87284791	     -0.40092354	     19.73382885	     -2.54052918	     -0.30901200	    -32.08610576	     16.24975755	      4.15430744	      7.52109856	      0.36442009	      1.45774251	    -12.14503767	     20.90662875	     -3.94722850	      2.58215264	      0.61197255	     11.71003743
      1.42000000	     -9.49885241	      3.72507242	    -33.40588769	     -0.92153791	      0.87296762	     -0.40132707	     21.04275456	     -2.52769170	     -0.30527707	    -34.84585867	     15.28211805	      4.54733568	      7.24678428	      0.31977087	      1.55317554	    -12.09153518	     21.04247689	     -3.93488929	      2.26151173	      0.77074600	     11.47120589
      1.43000000	     -9.40744240	      3.51733807	    -33.30881063	     -0.91990925	      0.87317500	     -0.40167564	     22.41379776	     -2.51985797	     -0.32937265	    -37.72301885	     14.19546903	      4.84496198	      6.92033543	      0.26782361	      1.65024311	    -12.00711362	     21.10722486	     -3.89592050	      1.90258086	      0.93557642	     11.23109425
      1.44000000	     -9.31956271	      3.28103403	    -33.20839980	     -0.91820239	      0.87342029	     -0.40191703	     23.84050682	     -2.48965240	     -0.38028926	    -40.67201400	     13.02336703	      5.09933207	      6.55896909	      0.18152252	      1.73261474	    -11.89766859	     21.22838181	     -3.84784016	      1.53153298	      1.12855531	     10.94552135
      1.45000000	     -9.19125580	      3.01779727	    -33.10224306	     -0.91636522	      0.87377359	     -0.40206176	     25.26600947	     -2.48015144	     -0.49210934	    -43.65167732	     11.81745281	      5.17110460	      6.11029280	      0.09183594	      1.81788404	    -11.73752236	     21.25039924	     -3.78944410	      1.10843056	      1.32492184	     10.63637006
      1.46000000	     -9.06403950	      2.74852068	    -32.98648232	     -0.91442968	      0.87410925	     -0.40211723	     26.73177868	     -2.48233922	     -0.64303153	    -46.64293622	     10.69252551	      5.09343461	      5.65010809	     -0.00679402	      1.90496656	    -11.57788847	     21.34431585	     -3.72938240	      0.68528108	      1.53071209	     10.28952025
      1.47000000	     -8.89952600	      2.46402413	    -32.85265345	     -0.91231907	      0.87451823	     -0.40206913	     28.16308246	     -2.52834631	     -0.86513579	    -49.58294027	      9.67713977	      4.83230820	      5.10987042	     -0.09853709	      2.00811285	    -11.36649320	     21.35659714	     -3.67078267	      0.22638809	      1.73305890	      9.90269035
      1.48000000	     -8.74139613	      2.16470514	    -32.70465887	     -0.91009093	      0.87490344	     -0.40190797	     29.58980725	     -2.57924137	     -1.13771209	    -52.44880143	      8.84623517	      4.14820538	      4.56735719	     -0.21246689	      2.10895086	    -11.17755712	     21.42758497	     -3.63225883	     -0.22976283	      1.95594925	      9.48725731
      1.49000000	     -8.55430529	      1.86456837	    -32.53178578	     -0.90767613	      0.87531463	     -0.40165696	     30.96234106	     -2.68452356	     -1.45941529	    -55.19739140	      8.25369717	      3.37427126	      3.96274176	     -0.31009254	      2.25863656	    -10.94289869	     21.46122786	     -3.60350110	     -0.70419955	      2.16836866	      9.04043892
      1.50000000	     -8.37050727	      1.56515265	    -32.33176327	     -0.90509718	      0.87570790	     -0.40130717	     32.29250601	     -2.81463972	     -1.81038525	    -57.79136926	      7.90809756	      2.49586279	      3.33975810	     -0.41211101	      2.45136176	    -10.68464621	     21.48243687	     -3.58463921	     -1.16399371	      2.39002672	      8.54504696
      1.51000000	     -8.20963417	      1.25140850	    -32.11232332	     -0.90239233	      0.87608221	     -0.40083917	     33.57615792	     -2.93688188	     -2.19821377	    -60.19143018	      7.75610976	      1.40994665	      2.73525929	     -0.54765064	      2.63497778	    -10.45614248	     21.50417954	     -3.59231239	     -1.60255134	      2.64299015	      8.04026327
      1.52000000	     -8.07342082	      0.93848100	    -31.86791076	     -0.89955938	      0.87641698	     -0.40026386	     34.81435851	     -3.05977664	     -2.60616580	    -62.37508521	      7.78693754	      0.31080733	      2.15526897	     -0.70372917	      2.83489653	    -10.24521362	     21.52266135	     -3.60716356	     -2.00794394	      2.91302173	      7.52921134
      1.53000000	     -7.98118513	      0.63814498	    -31.60709307	     -0.89662808	      0.87667735	     -0.39955613	     36.02481695	     -3.15441775	     -2.99390784	    -64.31836142	      7.97999536	     -0.73451471	      1.61803088	     -0.88283246	      3.06567404	    -10.04027211	     21.55514489	     -3.62063388	     -2.35386292	      3.19882246	      6.99787150
      1.54000000	     -7.93165197	      0.34181370	    -31.32985246	     -0.89360899	      0.87687353	     -0.39870822	     37.19536589	     -3.20934557	     -3.36866701	    -65.99723968	      8.25216690	     -1.67262099	      1.12659001	     -1.09378577	      3.30975130	     -9.85632272	     21.60722262	     -3.62656620	     -2.64725587	      3.50422301	      6.46261302
      1.55000000	     -7.92724551	      0.04421956	    -31.05163973	     -0.89050784	      0.87700597	     -0.39769717	     38.32145755	     -3.20549061	     -3.72282017	    -67.39227946	      8.57154389	     -2.44866877	      0.67904174	     -1.34410583	      3.54827173	     -9.69508426	     21.68626894	     -3.61867605	     -2.88873678	      3.83476280	      5.95662240
      1.56000000	     -7.96661716	     -0.25297302	    -30.78142218	     -0.88734541	      0.87707422	     -0.39649437	     39.39982109	     -3.12131457	     -4.03273087	    -68.48805299	      8.89763431	     -3.02645362	      0.27417208	     -1.63248893	      3.76248988	     -9.55405036	     21.76969490	     -3.59024151	     -3.07988042	      4.18422825	      5.47269624
      1.57000000	     -8.03850281	     -0.55168711	    -30.50505004	     -0.88409801	      0.87708843	     -0.39513203	     40.41704799	     -2.97504499	     -4.31073154	    -69.27803451	      9.16404678	     -3.21516430	     -0.10150586	     -1.95295134	      3.97821856	     -9.42575103	     21.84771375	     -3.55129090	     -3.23160593	      4.54868070	      4.99303159
      1.58000000	     -8.14285344	     -0.84317528	    -30.25922454	     -0.88081157	      0.87702014	     -0.39354563	     41.38862756	     -2.74105966	     -4.52819216	    -69.76421106	      9.33119972	     -3.31436988	     -0.44902490	     -2.29932225	      4.15076301	     -9.30911700	     21.96657334	     -3.49353733	     -3.34326956	      4.91352668	      4.56954798
      1.59000000	     -8.26622644	     -1.13395089	    -30.02213240	     -0.87744950	      0.87688238	     -0.39178559	     42.28860098	     -2.44415266	     -4.70793390	    -69.94330245	      9.39727884	     -3.23810011	     -0.77884295	     -2.66652465	      4.30639600	     -9.20921931	     22.09914448	     -3.40954453	     -3.43063595	      5.28269846	      4.17437000
      1.60000000	     -8.39487721	     -1.43301220	    -29.78839729	     -0.87397429	      0.87667446	     -0.38986715	     43.09698322	     -2.10542733	     -4.86986758	    -69.82098705	      9.35760057	     -2.81731101	     -1.10698532	     -3.05430985	      4.40831806	     -9.13122784	     22.29205810	     -3.23002540	     -3.51142157	      5.66034467	      3.79408141
      1.61000000	     -8.51345313	     -1.71456577	    -29.58814445	     -0.87044612	      0.87640113	     -0.38774226	     43.81721848	     -1.70927679	     -4.93647236	    -69.40015600	      9.22732048	     -2.12443091	     -1.46029532	     -3.43163753	      4.51826269	     -9.03268192	     22.46465721	     -3.04134923	     -3.59358067	      6.00349707	      3.46380034
      1.62000000	     -8.62278602	     -1.98578299	    -29.39712376	     -0.86678927	      0.87604589	     -0.38547118	     44.43945459	     -1.30232150	     -4.97492467	    -68.69215308	      8.99393219	     -1.30747922	     -1.83015313	     -3.80009493	      4.59258618	     -8.93317868	     22.63637389	     -2.86831010	     -3.67525837	      6.33145958	      3.15000166
